<svg viewBox="0 0 24 24" fill="currentColor" xmlns="http://www.w3.org/2000/svg">
  <path d="M6.763 10.036c0 .296.032.535.088.71.064.176.144.368.256.576.048.08.064.16.064.24 0 .096-.064.192-.176.288l-.592.384c-.08.056-.16.08-.24.08-.096 0-.192-.048-.288-.144-.112-.112-.208-.24-.288-.368-.08-.144-.16-.304-.256-.48-.64.752-1.44 1.136-2.4 1.136-.688 0-1.232-.192-1.648-.576-.416-.384-.624-.896-.624-1.552 0-.688.24-1.248.736-1.68.496-.432 1.152-.64 1.968-.64.272 0 .56.016.848.064.304.048.608.112.928.192v-.64c0-.672-.144-1.136-.416-1.424-.288-.288-.768-.432-1.456-.432-.304 0-.624.032-.944.112-.32.08-.624.176-.912.304-.144.064-.24.096-.304.112-.064.016-.112.016-.144.016-.128 0-.192-.096-.192-.288v-.448c0-.144.016-.256.064-.32.048-.064.128-.128.24-.192.304-.16.672-.288 1.088-.4.432-.112.88-.16 1.36-.16 1.04 0 1.792.24 2.272.704.464.464.704 1.168.704 2.128v2.8zm-3.312 1.248c.272 0 .56-.048.848-.144.288-.096.544-.272.752-.496.128-.144.224-.304.272-.496.048-.192.08-.416.08-.672v-.32c-.224-.064-.464-.112-.704-.144-.24-.032-.48-.048-.704-.048-.512 0-.896.096-1.152.288-.256.192-.384.464-.384.832 0 .336.08.576.256.736.176.16.432.24.736.24zm6.24 1.536c-.16 0-.272-.032-.336-.08-.064-.048-.128-.144-.176-.272l-1.968-6.464c-.048-.16-.08-.272-.08-.336 0-.128.064-.208.192-.208h.784c.16 0 .272.032.336.08.064.048.112.144.144.272l1.408 5.552 1.312-5.552c.032-.128.08-.224.144-.272.064-.048.176-.08.336-.08h.64c.16 0 .272.032.336.08.064.048.128.144.144.272l1.328 5.616 1.44-5.616c.032-.128.08-.224.144-.272.064-.048.176-.08.336-.08h.752c.128 0 .208.064.208.208 0 .048-.016.096-.032.16-.016.064-.032.144-.064.24l-2.016 6.464c-.048.128-.112.224-.176.272-.064.048-.176.08-.336.08h-.688c-.16 0-.272-.032-.336-.08-.064-.048-.128-.144-.144-.272l-1.296-5.392-1.28 5.392c-.032.128-.08.224-.144.272-.064.048-.176.08-.336.08h-.688zm10.32.384c-.736 0-1.472-.08-2.192-.256-.72-.176-1.28-.4-1.648-.64-.144-.096-.24-.208-.272-.32-.032-.112-.048-.224-.048-.352v-.464c0-.192.064-.288.192-.288.048 0 .096.016.144.032.048.016.128.048.208.08.288.128.592.24.928.304.336.064.672.096 1.008.096.544 0 .96-.096 1.264-.288.304-.192.448-.464.448-.816 0-.24-.08-.448-.24-.608-.16-.16-.448-.304-.848-.432l-1.216-.384c-.608-.192-1.056-.48-1.328-.848-.272-.368-.416-.784-.416-1.248 0-.368.08-.688.24-.976.16-.288.368-.528.624-.704.256-.192.544-.32.88-.416.336-.096.688-.144 1.056-.144.304 0 .624.016.928.064.304.048.576.112.832.192.128.048.224.112.288.192.064.08.096.176.096.288v.432c0 .192-.064.288-.192.288-.064 0-.176-.032-.304-.096-.464-.208-.976-.304-1.536-.304-.496 0-.88.08-1.152.256-.272.176-.416.432-.416.784 0 .24.096.448.272.608.176.16.496.32.944.464l1.184.384c.592.192 1.024.464 1.28.816.256.352.384.752.384 1.2 0 .384-.08.72-.24 1.024-.16.304-.384.56-.656.752-.272.192-.608.336-.992.432-.384.096-.8.144-1.248.144z"/>
</svg>