<svg viewBox="0 0 24 24" fill="currentColor" xmlns="http://www.w3.org/2000/svg">
  <path d="M10.204 14.35l.007.01-.999 2.413a5.171 5.171 0 002.075.652l-.063-2.57a.75.75 0 00-.75-.736.75.75 0 00-.27.051zm3.592 0a.75.75 0 00-.27-.051.75.75 0 00-.75.736l-.063 2.57a5.171 5.171 0 002.075-.652l-.999-2.413.007-.01zm-5.54-2.593l-2.466.814a5.17 5.17 0 001.353 1.951l1.777-1.777a.75.75 0 000-1.061.75.75 0 00-.664-.127zm7.488 0a.75.75 0 00-.664.127.75.75 0 000 1.061l1.777 1.777a5.17 5.17 0 001.353-1.951l-2.466-.814zm-3.744-2.757a.75.75 0 00-.75.75v2.5a.75.75 0 001.5 0v-2.5a.75.75 0 00-.75-.75zm0-6.5A10.5 10.5 0 1122.5 12 10.512 10.512 0 0012 1.5zm0 1.5a9 9 0 11-9 9 9.01 9.01 0 019-9z"/>
</svg>